ffmpeg version 3.4.8-0ubuntu0.2 Copyright (c) 2000-2020 the FFmpeg developers
  built with gcc 7 (Ubuntu 7.5.0-3ubuntu1~18.04)
  configuration: --prefix=/usr --extra-version=0ubuntu0.2 --toolchain=hardened --libdir=/usr/lib/x86_64-linux-gnu --incdir=/usr/include/x86_64-linux-gnu --enable-gpl --disable-stripping --enable-avresample --enable-avisynth --enable-gnutls --enable-ladspa --enable-libass --enable-libbluray --enable-libbs2b --enable-libcaca --enable-libcdio --enable-libflite --enable-libfontconfig --enable-libfreetype --enable-libfribidi --enable-libgme --enable-libgsm --enable-libmp3lame --enable-libmysofa --enable-libopenjpeg --enable-libopenmpt --enable-libopus --enable-libpulse --enable-librubberband --enable-librsvg --enable-libshine --enable-libsnappy --enable-libsoxr --enable-libspeex --enable-libssh --enable-libtheora --enable-libtwolame --enable-libvorbis --enable-libvpx --enable-libwavpack --enable-libwebp --enable-libx265 --enable-libxml2 --enable-libxvid --enable-libzmq --enable-libzvbi --enable-omx --enable-openal --enable-opengl --enable-sdl2 --enable-libdc1394 --enable-libdrm --enable-libiec61883 --enable-chromaprint --enable-frei0r --enable-libopencv --enable-libx264 --enable-shared
  libavutil      55. 78.100 / 55. 78.100
  libavcodec     57.107.100 / 57.107.100
  libavformat    57. 83.100 / 57. 83.100
  libavdevice    57. 10.100 / 57. 10.100
  libavfilter     6.107.100 /  6.107.100
  libavresample   3.  7.  0 /  3.  7.  0
  libswscale      4.  8.100 /  4.  8.100
  libswresample   2.  9.100 /  2.  9.100
  libpostproc    54.  7.100 / 54.  7.100
[rawvideo @ 0x56534815da20] Estimating duration from bitrate, this may be inaccurate
Input #0, rawvideo, from '../../SVC-Encoder-20220109T061506Z-001/SVC-Encoder/Dataset/RollerCoaster/6f_2x2/tile_yuv/f2_t3_480x480.yuv':
  Duration: 00:00:10.00, start: 0.000000, bitrate: 82944 kb/s
    Stream #0:0: Video: rawvideo (I420 / 0x30323449), yuv420p, 480x480, 82944 kb/s, 30 tbr, 30 tbn, 30 tbc
Stream mapping:
  Stream #0:0 -> #0:0 (rawvideo (native) -> h264 (libx264))
Press [q] to stop, [?] for help
[libx264 @ 0x56534816ac60] using cpu capabilities: MMX2 SSE2Fast LZCNT SSSE3 SSE4.2 AVX
[libx264 @ 0x56534816ac60] profile High, level 3.0
Output #0, rawvideo, to 'RollerCoaster_f2_t3_480x480_x264_QP_36.h264':
  Metadata:
    encoder         : Lavf57.83.100
    Stream #0:0: Video: h264 (libx264), yuv420p, 480x480, q=-1--1, 30 fps, 30 tbn, 30 tbc
    Metadata:
      encoder         : Lavc57.107.100 libx264
    Side data:
      cpb: bitrate max/min/avg: 0/0/0 buffer size: 0 vbv_delay: -1
frame=  300 fps=0.0 q=42.0 LPSNR=Y:inf U:inf V:inf *:inf size=       8kB time=00:00:09.93 bitrate=   6.2kbits/s speed=31.5x    
video:8kB audio:0kB subtitle:0kB other streams:0kB global headers:0kB muxing overhead: 0.000000%
[libx264 @ 0x56534816ac60] frame I:2     Avg QP:34.33  size:   834  PSNR Mean Y:47.56 U:47.86 V:48.10 Avg:47.69 Global:47.66
[libx264 @ 0x56534816ac60] frame P:76    Avg QP:35.94  size:    29  PSNR Mean Y:47.45 U:47.78 V:47.79 Avg:47.54 Global:47.48
[libx264 @ 0x56534816ac60] frame B:222   Avg QP:41.35  size:    17  PSNR Mean Y:47.51 U:47.78 V:47.77 Avg:47.59 Global:47.57
[libx264 @ 0x56534816ac60] consecutive B-frames:  1.3%  0.0%  0.0% 98.7%
[libx264 @ 0x56534816ac60] mb I  I16..4: 74.0% 26.0%  0.0%
[libx264 @ 0x56534816ac60] mb P  I16..4:  0.1%  0.0%  0.0%  P16..4:  0.2%  0.0%  0.0%  0.0%  0.0%    skip:99.6%
[libx264 @ 0x56534816ac60] mb B  I16..4:  0.0%  0.0%  0.0%  B16..8:  0.0%  0.0%  0.0%  direct: 0.0%  skip:100.0%  L0:48.5% L1:51.5% BI: 0.0%
[libx264 @ 0x56534816ac60] 8x8 transform intra:26.2% inter:60.0%
[libx264 @ 0x56534816ac60] coded y,uvDC,uvAC intra: 0.3% 4.2% 0.0% inter: 0.0% 0.0% 0.0%
[libx264 @ 0x56534816ac60] i16 v,h,dc,p: 89%  8%  3%  1%
[libx264 @ 0x56534816ac60] i8 v,h,dc,ddl,ddr,vr,hd,vl,hu:  0%  0% 100%  0%  0%  0%  0%  0%  0%
[libx264 @ 0x56534816ac60] i4 v,h,dc,ddl,ddr,vr,hd,vl,hu: 38%  3% 34% 12%  6%  3%  3%  0%  0%
[libx264 @ 0x56534816ac60] i8c dc,h,v,p: 99%  1%  0%  0%
[libx264 @ 0x56534816ac60] Weighted P-Frames: Y:0.0% UV:0.0%
[libx264 @ 0x56534816ac60] ref P L0: 44.5% 27.7% 25.5%  2.2%
[libx264 @ 0x56534816ac60] ref B L0: 68.8% 31.2%
[libx264 @ 0x56534816ac60] ref B L1: 76.5% 23.5%
[libx264 @ 0x56534816ac60] PSNR Mean Y:47.493 U:47.783 V:47.781 Avg:47.581 Global:47.552 kb/s:6.17
